PathFileType	4	(X/Y/Z)	/Users/itak/Documents/Research/Walk-IL/dataset/trc/00508_00183.trc
DataRate	CameraRate	NumFrames	NumMarkers	Units	OrigDataRate	OrigDataStartFrame	OrigNumFrames
100.000000	100.000000	4	54	mm	100.000000	403	461
Frame#	Time	RPSI			LPSI			L3			STRN			T10			C7			CLAV			RBAK			LBAK			LSHO			LUPA			LAEL			LAOL			LWTS			LWPS			LFRA			LIFD			LHPS			LHTS			RSHO			RUPA			RAEL			RAOL			RWTS			RWPS			RFRA			RIFD			RHTS			RHPS			RBHD			LFHD			RFHD			LBHD			LHIP			RHIP			RASI			LASI			LKNE			LTHI			LANK			LTIP			LTOE			LMT1			LMT5			LHEE			RKNE			RTHI			RANK			RTIP			RTOE			RMT1			RMT5			RHEE			*53			
		X1	Y1	Z1	X2	Y2	Z2	X3	Y3	Z3	X4	Y4	Z4	X5	Y5	Z5	X6	Y6	Z6	X7	Y7	Z7	X8	Y8	Z8	X9	Y9	Z9	X10	Y10	Z10	X11	Y11	Z11	X12	Y12	Z12	X13	Y13	Z13	X14	Y14	Z14	X15	Y15	Z15	X16	Y16	Z16	X17	Y17	Z17	X18	Y18	Z18	X19	Y19	Z19	X20	Y20	Z20	X21	Y21	Z21	X22	Y22	Z22	X23	Y23	Z23	X24	Y24	Z24	X25	Y25	Z25	X26	Y26	Z26	X27	Y27	Z27	X28	Y28	Z28	X29	Y29	Z29	X30	Y30	Z30	X31	Y31	Z31	X32	Y32	Z32	X33	Y33	Z33	X34	Y34	Z34	X35	Y35	Z35	X36	Y36	Z36	X37	Y37	Z37	X38	Y38	Z38	X39	Y39	Z39	X40	Y40	Z40	X41	Y41	Z41	X42	Y42	Z42	X43	Y43	Z43	X44	Y44	Z44	X45	Y45	Z45	X46	Y46	Z46	X47	Y47	Z47	X48	Y48	Z48	X49	Y49	Z49	X50	Y50	Z50	X51	Y51	Z51	X52	Y52	Z52	X53	Y53	Z53	X54	Y54	Z54	

404	4.03	1475.9765625	942.2579956054688	1241.950073242188	1548.48681640625	945.4259033203125	1146.791381835938	1513.168212890625	1019.924011230469	1189.21044921875	1686.703491210938	1192.42822265625	1308.13916015625	1495.100463867188	1120.471923828125	1182.887329101562	1516.498901367188	1353.8154296875	1207.967529296875	1651.390502929688	1285.789306640625	1288.171508789062	1437.26513671875	1227.057495117188	1254.722045898438	1543.065185546875	1301.015747070312	1122.293579101562	1658.759399414062	1353.834228515625	1108.30029296875	1676.470458984375	1232.12548828125	1041.747924804688	1685.236206054688	1026.813720703125	1001.588439941406	1591.852905273438	1016.607727050781	1038.945922851562	1795.932739257812	872.0908203125	1075.374633789062	1735.490112304688	815.1046752929688	1031.136352539062	1714.122436523438	957.8270874023438	1010.447326660156	1826.81640625	723.1930541992188	1111.174926757812	1768.963745117188	770.5193481445312	1044.628662109375	1823.845581054688	795.98681640625	1068.783813476562	1484.294677734375	1345.21044921875	1362.125244140625	1440.642333984375	1276.314453125	1399.390869140625	1438.194946289062	1010.27734375	1445.019653320312	1411.256103515625	985.6558227539062	1389.423950195312	1611.956176757812	891.83447265625	1495.170532226562	1542.689453125	836.04736328125	1515.778076171875	1452.84716796875	963.00146484375	1459.332153320312	1681.224853515625	754.4786376953125	1534.143188476562	1654.432861328125	818.793212890625	1545.135375976562	1591.487915039062	783.4999389648438	1541.153930664062	1486.062744140625	1498.194580078125	1284.694702148438	1659.975830078125	1590.712646484375	1248.044555664062	1578.654663085938	1581.007446289062	1344.658203125	1577.416259765625	1501.96533203125	1156.397338867188	1717.327514648438	890.8923950195312	1096.550048828125	1500.616577148438	841.0195922851562	1411.289794921875	1612.940551757812	899.7788696289062	1409.360473632812	1748.106567382812	925.8887329101562	1208.92333984375	1738.252563476562	469.8184509277344	1137.025024414062	1752.357055664062	628.4564819335938	1125.907958984375	1644.509155273438	38.5020866394043	1048.93115234375	1713.617065429688	320.6806945800781	1100.760498046875	1766.770751953125	24.22451210021973	1213.11767578125	1686.377563476562	31.22370910644531	1193.225952148438	1738.498046875	27.99773597717285	1105.984252929688	1571.087890625	33.06306838989258	1071.198852539062	1573.603515625	457.1548461914062	1367.617797851562	1570.2802734375	764.2168579101562	1454.1396484375	1477.414184570312	43.49138641357422	1260.538818359375	1575.551513671875	312.1979064941406	1341.432983398438	1671.277465820312	26.30852317810059	1321.114013671875	1632.139038085938	32.69031143188477	1257.784912109375	1566.847534179688	31.00272369384766	1328.7978515625	1454.653198242188	38.34308242797852	1193.749633789062	nan	nan	nan	
405	4.04	1477.363647460938	942.7575073242188	1242.146728515625	1549.705322265625	945.6934814453125	1146.8935546875	1514.633666992188	1020.373901367188	1189.553100585938	1688.631591796875	1192.441284179688	1308.385009765625	1496.702758789062	1120.838500976562	1183.449584960938	1518.506225585938	1354.137451171875	1208.485961914062	1653.441650390625	1285.852172851562	1288.462158203125	1439.103637695312	1227.514282226562	1255.242553710938	1544.835205078125	1301.304443359375	1122.765625	1660.65869140625	1353.928344726562	1108.630493164062	1678.017211914062	1232.227416992188	1041.911865234375	1686.713500976562	1026.948974609375	1001.842712402344	1593.171508789062	1016.80810546875	1038.975830078125	1797.684204101562	872.96142578125	1076.622924804688	1737.992431640625	815.6686401367188	1031.763061523438	1715.906127929688	958.2025146484375	1010.964416503906	1829.127685546875	724.2123413085938	1112.6162109375	1771.567138671875	771.2363891601562	1045.54638671875	1826.092407226562	797.0479736328125	1070.2333984375	1486.500854492188	1345.506591796875	1362.595581054688	1442.6552734375	1276.7978515625	1399.875610351562	1438.613403320312	1010.5888671875	1444.82763671875	1411.5068359375	986.5185546875	1389.085571289062	1610.885620117188	889.2860717773438	1493.746337890625	1541.326293945312	834.7565307617188	1514.591064453125	1452.720825195312	962.8439331054688	1458.665161132812	1679.135986328125	752.0740356445312	1532.54150390625	1652.934692382812	816.0175170898438	1543.65576171875	1589.571166992188	781.4197387695312	1539.482788085938	1488.16259765625	1498.3828125	1284.818969726562	1662.157348632812	1590.837768554688	1248.337890625	1580.739501953125	1581.219848632812	1344.888916015625	1579.63818359375	1502.040771484375	1156.7548828125	1718.502197265625	891.001708984375	1096.725219726562	1501.605346679688	840.6306762695312	1410.638671875	1614.034301757812	899.2696533203125	1409.0927734375	1749.476196289062	925.8242797851562	1209.12451171875	1738.855590820312	469.873779296875	1136.502685546875	1753.177856445312	628.52197265625	1125.577514648438	1644.599365234375	38.2375602722168	1048.882568359375	1713.8984375	320.7721252441406	1100.279296875	1766.782958984375	24.23245048522949	1213.02001953125	1686.5009765625	31.35966110229492	1193.072998046875	1738.583984375	27.87290954589844	1105.89404296875	1571.243774414062	33.12191009521484	1071.199462890625	1573.7294921875	457.0725708007812	1367.35791015625	1571.424926757812	764.5885009765625	1453.88232421875	1477.360961914062	43.4410400390625	1260.482788085938	1575.550659179688	312.2404479980469	1341.387573242188	1671.252563476562	26.31543159484863	1321.119140625	1632.142822265625	32.80429458618164	1257.848999023438	1566.850830078125	31.03329658508301	1328.824096679688	1454.645874023438	38.40212249755859	1193.786743164062	nan	nan	nan	
406	4.05	1478.664916992188	943.1737670898438	1242.33740234375	1550.874755859375	945.9356689453125	1146.970336914062	1516.019409179688	1020.7783203125	1189.839599609375	1690.496337890625	1192.41845703125	1308.580688476562	1498.2119140625	1121.201049804688	1184.0029296875	1520.468383789062	1354.44482421875	1208.979125976562	1655.428955078125	1285.876586914062	1288.70263671875	1440.86962890625	1227.95361328125	1255.793212890625	1546.545776367188	1301.578247070312	1123.193359375	1662.495483398438	1353.995239257812	1108.9169921875	1679.479248046875	1232.299926757812	1042.026123046875	1688.033935546875	1027.068969726562	1002.008056640625	1594.37158203125	1016.951354980469	1038.883422851562	1799.299438476562	873.8334350585938	1077.701293945312	1740.330078125	816.2144165039062	1032.292846679688	1717.508178710938	958.5723266601562	1011.373291015625	1831.33935546875	725.2583618164062	1113.952758789062	1774.032104492188	771.9437255859375	1046.374267578125	1828.206176757812	798.1134033203125	1071.534790039062	1488.669677734375	1345.7841796875	1363.038208007812	1444.653198242188	1277.284545898438	1400.365844726562	1439.0478515625	1010.923889160156	1444.697998046875	1411.835327148438	987.3850708007812	1388.889404296875	1609.849243164062	886.8466186523438	1492.451049804688	1539.943481445312	833.4883422851562	1513.482055664062	1452.657104492188	962.7844848632812	1458.164184570312	1676.8466796875	749.2852783203125	1530.677490234375	1651.386108398438	813.244140625	1542.161376953125	1587.631713867188	779.4450073242188	1537.943725585938	1490.225830078125	1498.5166015625	1284.908813476562	1664.2880859375	1590.936401367188	1248.563842773438	1582.78466796875	1581.397094726562	1345.04833984375	1581.8076171875	1502.072631835938	1157.04931640625	1719.630249023438	891.08642578125	1096.874755859375	1502.50927734375	840.2325439453125	1409.965698242188	1615.043334960938	898.7516479492188	1408.803344726562	1750.778198242188	925.7432250976562	1209.29345703125	1739.496337890625	469.9316101074219	1136.050659179688	1754.027709960938	628.5713500976562	1125.299682617188	1644.701782226562	38.01953887939453	1048.781372070312	1714.243286132812	320.8711547851562	1099.877319335938	1766.797607421875	24.24141311645508	1212.929443359375	1686.62451171875	31.50065994262695	1192.93359375	1738.665893554688	27.75346755981445	1105.802490234375	1571.384765625	33.23008728027344	1071.176025390625	1573.839233398438	456.9984436035156	1367.088989257812	1572.4794921875	764.9573364257812	1453.599365234375	1477.318969726562	43.4008903503418	1260.427734375	1575.532836914062	312.2735595703125	1341.324340820312	1671.2265625	26.32367706298828	1321.124267578125	1632.122924804688	32.86244964599609	1257.876708984375	1566.854125976562	31.06450462341309	1328.848022460938	1454.646606445312	38.40766525268555	1193.789428710938	nan	nan	nan	
407	4.06	1479.8779296875	943.4927978515625	1242.5341796875	1552.005859375	946.1568603515625	1147.021240234375	1517.32763671875	1021.122497558594	1190.068603515625	1692.289428710938	1192.362182617188	1308.729858398438	1499.63330078125	1121.557006835938	1184.521240234375	1522.38671875	1354.732543945312	1209.427612304688	1657.348754882812	1285.873901367188	1288.90576171875	1442.565795898438	1228.370361328125	1256.349731445312	1548.205688476562	1301.8349609375	1123.564086914062	1664.27490234375	1354.030151367188	1109.156005859375	1680.874267578125	1232.345458984375	1042.101440429688	1689.224365234375	1027.17236328125	1002.097229003906	1595.487182617188	1017.041870117188	1038.728515625	1800.7822265625	874.6806030273438	1078.608642578125	1742.49267578125	816.7306518554688	1032.727294921875	1718.933959960938	958.9279174804688	1011.683715820312	1833.429809570312	726.2964477539062	1115.168212890625	1776.3505859375	772.6256713867188	1047.1044921875	1830.17578125	799.1489868164062	1072.679077148438	1490.78955078125	1346.0458984375	1363.448852539062	1446.62451171875	1277.76904296875	1400.854736328125	1439.505493164062	1011.2734375	1444.61767578125	1412.265502929688	988.2306518554688	1388.832885742188	1608.87451171875	884.5428466796875	1491.310791015625	1538.563598632812	832.265380859375	1512.463745117188	1452.657470703125	962.8086547851562	1457.820678710938	1674.322143554688	745.9715576171875	1528.47802734375	1649.803344726562	810.4849853515625	1540.68017578125	1585.6796875	777.5736694335938	1536.531982421875	1492.252807617188	1498.607788085938	1284.977661132812	1666.370971679688	1591.005493164062	1248.736694335938	1584.796997070312	1581.543823242188	1345.16015625	1583.91943359375	1502.06591796875	1157.29052734375	1720.723022460938	891.150634765625	1096.998291015625	1503.349975585938	839.8703002929688	1409.306884765625	1615.989624023438	898.2694702148438	1408.528198242188	1752.01220703125	925.6458740234375	1209.430541992188	1740.160522460938	469.9897155761719	1135.672485351562	1754.897094726562	628.6063232421875	1125.07275390625	1644.8037109375	37.85063171386719	1048.643188476562	1714.654663085938	320.9656982421875	1099.562133789062	1766.815307617188	24.24832153320312	1212.849365234375	1686.73876953125	31.63385200500488	1192.81103515625	1738.739135742188	27.64256286621094	1105.71337890625	1571.50634765625	33.40309524536133	1071.109985351562	1573.945190429688	456.944091796875	1366.82958984375	1573.471557617188	765.3621215820312	1453.330688476562	1477.289428710938	43.3768310546875	1260.378051757812	1575.505737304688	312.2944641113281	1341.23046875	1671.198852539062	26.33404731750488	1321.128295898438	1632.062866210938	32.82109832763672	1257.836181640625	1566.856201171875	31.09592437744141	1328.867309570312	1454.654418945312	38.35906982421875	1193.758178710938	nan	nan	nan	
